<svg width="82" height="42" viewBox="0 0 82 42" fill="none" xmlns="http://www.w3.org/2000/svg">
<path d="M12.6222 11.4755V7.56445H0V34.4359H12.6222V30.5248C10.0365 30.5248 7.55676 29.5213 5.72843 27.7351C3.9001 25.9489 2.87295 23.5263 2.87295 21.0002C2.87295 18.4741 3.9001 16.0515 5.72843 14.2652C7.55676 12.479 10.0365 11.4755 12.6222 11.4755V11.4755Z" fill="white"/>
<path d="M12.6223 11.4756V30.5249C15.208 30.5249 17.6877 29.5214 19.516 27.7352C21.3444 25.9489 22.3715 23.5263 22.3715 21.0002C22.3715 18.4741 21.3444 16.0515 19.516 14.2653C17.6877 12.4791 15.208 11.4756 12.6223 11.4756V11.4756Z" fill="white"/>
<path d="M42.5592 28.6954C41.6602 28.6954 40.885 28.3697 40.2336 27.7183C39.5822 27.0538 39.1392 26.1809 38.9047 25.0995V28.5H36.1882V14.6246H38.9047V22.129C39.1392 21.0477 39.5822 20.1813 40.2336 19.5298C40.885 18.8654 41.6602 18.5331 42.5592 18.5331C43.3279 18.5331 44.0184 18.7546 44.6307 19.1976C45.2561 19.6406 45.7447 20.2529 46.0964 21.0346C46.4612 21.8033 46.6436 22.6632 46.6436 23.6143C46.6436 24.5654 46.4612 25.4318 46.0964 26.2135C45.7447 26.9822 45.2561 27.588 44.6307 28.031C44.0184 28.4739 43.3279 28.6954 42.5592 28.6954ZM41.3475 26.1744C41.8166 26.1744 42.24 26.0637 42.6178 25.8422C43.0087 25.6207 43.3148 25.3145 43.5363 24.9237C43.7578 24.5328 43.8686 24.0963 43.8686 23.6143C43.8686 23.1322 43.7578 22.6958 43.5363 22.3049C43.3148 21.9141 43.0087 21.6079 42.6178 21.3864C42.24 21.1519 41.8166 21.0346 41.3475 21.0346C40.8785 21.0346 40.4486 21.1519 40.0577 21.3864C39.6799 21.6079 39.3802 21.9141 39.1587 22.3049C38.9503 22.6958 38.846 23.1322 38.846 23.6143C38.846 24.0963 38.9503 24.5328 39.1587 24.9237C39.3802 25.3145 39.6799 25.6207 40.0577 25.8422C40.4486 26.0637 40.8785 26.1744 41.3475 26.1744ZM52.6882 28.7931C51.5938 28.7931 50.6297 28.6173 49.7958 28.2655C48.975 27.9137 48.3366 27.4186 47.8806 26.7802C47.4377 26.1288 47.2162 25.3731 47.2162 24.5133C47.2162 23.8097 47.379 23.1909 47.7048 22.6567C48.0435 22.1095 48.5256 21.6926 49.1509 21.4059C49.7763 21.1193 50.5059 20.976 51.3397 20.976H51.3788L48.3888 17.4387V14.82H58.981V17.556H52.1019L57.0658 23.4384C57.3785 22.6827 57.5674 21.8098 57.6325 20.8197H60.5835C60.5184 22.7349 60.0102 24.3699 59.0592 25.7249L61.4434 28.5H57.828L56.9681 27.4838C56.3818 27.9007 55.7238 28.2264 54.9942 28.4609C54.2777 28.6824 53.509 28.7931 52.6882 28.7931ZM52.825 26.2721C53.294 26.2721 53.7305 26.2005 54.1344 26.0571C54.5382 25.9138 54.8965 25.7119 55.2092 25.4513L51.5352 21.1519H51.3788C50.8968 21.2952 50.5059 21.5623 50.2062 21.9531C49.9196 22.331 49.7763 22.7805 49.7763 23.3016C49.7763 24.1354 50.0434 24.839 50.5776 25.4122C51.1248 25.9855 51.8739 26.2721 52.825 26.2721ZM64.9551 28.5L61.7501 14.82H64.9942L68.0038 27.6597L70.8375 14.82H71.287L74.1403 27.6597L77.1499 14.82H80.3549L77.1499 28.5H73.9058L71.0525 15.6408L68.2383 28.5H64.9551Z" fill="#F7F7F7"/>
</svg>
