<svg width="32" height="38" viewBox="0 0 32 38" fill="none" xmlns="http://www.w3.org/2000/svg">
<path d="M17.8495 5.53082V0H0V38H17.8495V32.4692C14.193 32.4692 10.6863 31.0501 8.10081 28.5241C5.51529 25.9982 4.06276 22.5722 4.06276 19C4.06276 15.4278 5.51529 12.0018 8.10081 9.47585C10.6863 6.94989 14.193 5.53082 17.8495 5.53082Z" fill="white"/>
<path d="M17.8496 5.53088V32.4692C21.5061 32.4692 25.0128 31.0502 27.5983 28.5242C30.1838 25.9982 31.6364 22.5723 31.6364 19.0001C31.6364 15.4278 30.1838 12.0019 27.5983 9.47591C25.0128 6.94995 21.5061 5.53088 17.8496 5.53088Z" fill="white"/>
</svg>
